<?xml version="1.0" encoding="utf-8"?>
<!-- Generator: Adobe Illustrator 28.1.0, SVG Export Plug-In . SVG Version: 6.00 Build 0)  -->
<svg version="1.1" id="Layer_1" xmlns="http://www.w3.org/2000/svg" xmlns:xlink="http://www.w3.org/1999/xlink" x="0px" y="0px"
	 viewBox="0 0 300 300" style="enable-background:new 0 0 300 300;" xml:space="preserve">
<style type="text/css">
	.st0{fill:#007BFF;}
	.st1{fill:#FFFFFF;}
</style>
<rect y="0" class="st0" width="300" height="300"/>
<path class="st1" d="M228.7,248.76c0.44,2.68-1.7,5.11-4.5,5.11l-8.61-0.01l-24.14-0.03l-11.39-0.02c-1.85,0-3.53-1.09-4.21-2.76
	c-1.19-2.91-2.49-5.77-3.91-8.56c-2.38-4.71-5.07-9.24-8.04-13.58c-8.97-13.08-20.51-24.37-33.93-33.18
	c-0.37-0.25-0.74-0.49-1.11-0.72c-4.01-2.58-8.19-4.93-12.51-7.04c-0.19-0.1-0.38-0.19-0.58-0.28c-9.63-4.66-19.97-8.14-30.83-10.25
	c-3.51-0.68-7.07-1.22-10.69-1.61h0c-1.71-0.18-3.01-1.58-3.01-3.25l0-52.79h0.64c-0.21-0.01-0.43-0.03-0.64-0.05V58.37
	c0-6.76,5.66-12.24,12.65-12.24l1.05,0l30.83,0.05l0.46,0c6.97,0.01,12.62,5.48,12.62,12.24v66.6c0,2.23,2.81,3.31,4.39,1.7
	c2.17-2.2,4.26-4.48,6.28-6.84c9.25-10.76,16.95-23.03,22.76-36.16c0.43-0.96,0.84-1.92,1.24-2.89c2.42-5.78,8.17-9.59,14.61-9.59
	l2.99,0l32.35,0.05l6.96,0.01c3.31,0,5.76,3,5,6.12c-0.52,2.13-1.09,4.26-1.7,6.38c-3.55,12.35-8.61,24.5-15.07,36.17
	c-2.42,4.37-5.03,8.67-7.84,12.88c-5.56,8.37-11.86,16.4-18.85,23.96c-1.45,1.57-2.92,3.11-4.41,4.62l1.97,1.71
	c4.4,3.83,8.54,7.84,12.39,12c14.85,15.99,25.65,34.25,31.97,53.84c1.45,4.46,2.66,8.99,3.62,13.57
	C227.97,244.61,228.36,246.68,228.7,248.76z"/>
</svg>
